<svg width="1080" height="350" viewBox="25 430 1000 250" fill="none" xmlns="http://www.w3.org/2000/svg">
<g clip-path="url(#clip0_617_17)">
<path d="M117 575H939" stroke="#000000ff" stroke-width="2"/>
<path d="M424.587 477.722C422.164 473.222 421.471 467.684 422.51 461.107C423.548 454.531 425.712 448.213 429 442.156C432.115 436.271 435.923 431.166 440.423 426.839C444.923 422.512 449.596 419.916 454.442 419.05C457.384 418.531 460.326 418.791 463.269 419.829C466.384 420.695 468.115 422.945 468.461 426.579C468.634 429.002 468.115 432.031 466.903 435.665C465.692 439.3 463.442 443.54 460.153 448.386C459.115 449.944 457.817 450.377 456.259 449.684C454.875 448.819 454.701 447.608 455.74 446.05C458.682 441.896 460.672 438.262 461.711 435.146C462.749 432.031 463.182 429.521 463.009 427.618C462.836 426.06 462.317 425.195 461.451 425.021C460.759 424.848 459.894 425.021 458.855 425.541C457.99 425.887 457.038 426.493 456 427.358C455.134 428.05 454.442 428.656 453.923 429.175C451.846 431.252 449.423 434.454 446.654 438.781C443.884 443.108 441.461 447.694 439.384 452.54C437.308 457.386 435.836 462.146 434.971 466.819C434.279 471.492 434.885 475.299 436.788 478.242C438.173 480.665 440.336 482.049 443.279 482.395C446.221 482.742 449.336 482.568 452.625 481.876C456.086 481.184 459.374 480.319 462.49 479.28C465.605 478.069 468.115 477.03 470.018 476.165C475.211 473.915 480.403 471.232 485.595 468.117C490.96 465.001 495.98 461.886 500.653 458.771C505.326 455.655 509.479 452.627 513.114 449.684C516.921 446.742 519.864 444.233 521.941 442.156C523.152 440.944 524.364 440.858 525.575 441.896C526.787 443.108 526.787 444.406 525.575 445.79C523.498 447.867 520.469 450.463 516.489 453.579C512.681 456.694 508.354 459.896 503.508 463.184C498.662 466.3 493.47 469.501 487.932 472.79C482.566 475.905 477.201 478.588 471.836 480.838C468.374 482.395 464.394 483.867 459.894 485.251C455.394 486.636 450.894 487.501 446.394 487.847C441.894 488.193 437.654 487.674 433.673 486.29C429.865 484.732 426.837 481.876 424.587 477.722ZM656.263 460.588C650.551 465.088 644.234 469.328 637.311 473.309C630.388 477.117 623.465 480.059 616.542 482.136C609.619 484.213 603.043 484.991 596.812 484.472C590.581 483.78 585.389 481.097 581.235 476.424C579.331 480.059 576.995 484.299 574.226 489.145C571.63 493.991 568.774 498.751 565.659 503.424C562.543 508.097 559.255 512.51 555.793 516.664C552.505 520.645 549.217 523.76 545.928 526.01C543.332 527.741 540.736 528.693 538.14 528.866C535.544 529.039 533.034 528.693 530.611 527.827C528.361 526.789 526.198 525.318 524.121 523.414C522.217 521.337 520.659 519 519.448 516.404C517.371 511.904 516.073 506.539 515.554 500.309C514.861 493.905 514.775 487.328 515.294 480.578C515.64 473.828 516.419 467.251 517.631 460.848C518.669 454.444 519.881 448.819 521.265 443.973L522.044 442.156C523.429 440.425 525.246 440.165 527.496 441.377C528.88 442.069 530.438 443.454 532.169 445.531C533.9 447.434 534.592 449.079 534.246 450.463C533.553 453.752 532.861 457.473 532.169 461.627C531.477 465.78 530.871 470.107 530.352 474.607C530.005 479.107 529.746 483.607 529.573 488.107C529.4 492.607 529.486 496.934 529.832 501.087C530.005 502.645 530.265 504.982 530.611 508.097C530.957 511.212 531.563 514.068 532.428 516.664C533.467 519.26 534.765 521.25 536.323 522.635C538.053 523.847 540.303 523.5 543.073 521.597C546.188 519.52 549.39 516.404 552.678 512.251C556.14 508.097 559.428 503.597 562.543 498.751C565.659 493.905 568.514 489.059 571.11 484.213C573.88 479.194 576.13 474.953 577.86 471.492C576.303 468.203 575.437 464.223 575.264 459.55C575.091 454.704 575.524 449.858 576.562 445.011C577.601 439.992 579.072 435.319 580.976 430.992C582.879 426.493 585.129 422.858 587.726 420.089C590.668 416.8 593.524 415.243 596.293 415.416C599.062 415.589 600.36 418.185 600.187 423.204C600.014 427.012 599.062 431.858 597.331 437.742C595.773 443.454 593.524 449.598 590.581 456.175C589.716 458.598 588.677 461.021 587.466 463.444C586.427 465.867 585.303 468.29 584.091 470.713C587.206 475.559 591.533 478.328 597.072 479.02C602.61 479.54 608.667 478.847 615.244 476.944C621.821 474.867 628.398 471.924 634.975 468.117C641.725 464.309 647.869 460.328 653.407 456.175C663.272 448.733 673.743 443.367 684.82 440.079C696.07 436.617 707.925 434.627 720.387 434.108C732.848 433.416 746.001 433.848 759.847 435.406C773.866 436.964 788.664 438.867 804.241 441.117C812.548 442.329 822.933 443.8 835.394 445.531C848.028 447.261 861.269 448.819 875.114 450.204C888.96 451.415 902.72 452.194 916.393 452.54C930.239 452.886 942.527 452.367 953.257 450.983C956.373 450.636 959.834 450.117 963.642 449.425C967.449 448.559 970.997 447.348 974.286 445.79C977.574 444.233 980.343 442.242 982.593 439.819C984.843 437.223 985.968 433.935 985.968 429.954C985.968 428.916 986.228 428.137 986.747 427.618C987.439 427.098 988.132 426.839 988.824 426.839C989.689 426.839 990.468 427.098 991.16 427.618C991.853 428.137 992.199 428.916 992.199 429.954C992.199 434.973 990.901 439.127 988.305 442.415C985.882 445.704 982.766 448.386 978.959 450.463C975.151 452.367 970.997 453.838 966.497 454.877C961.998 455.915 957.757 456.694 953.777 457.213C946.334 458.252 938.286 458.857 929.633 459.03C920.979 459.03 911.979 458.857 902.633 458.511C893.46 457.992 884.201 457.3 874.855 456.434C865.509 455.569 856.423 454.617 847.596 453.579C838.942 452.54 830.808 451.502 823.192 450.463C815.577 449.252 808.914 448.213 803.202 447.348C787.972 445.098 773.434 443.194 759.588 441.637C745.915 439.906 732.934 439.3 720.646 439.819C708.531 440.165 697.108 441.896 686.378 445.011C675.647 448.127 665.609 453.319 656.263 460.588ZM581.495 464.223C582.36 462.665 583.053 461.107 583.572 459.55C584.264 457.819 584.956 456.175 585.649 454.617C588.418 448.386 590.581 442.675 592.139 437.483C593.87 432.117 594.822 427.877 594.995 424.762C595.168 422.166 594.995 420.868 594.475 420.868C593.956 420.868 592.918 421.733 591.36 423.464C589.283 425.541 587.466 428.396 585.908 432.031C584.524 435.492 583.312 439.213 582.274 443.194C581.408 447.002 580.889 450.809 580.716 454.617C580.543 458.252 580.803 461.453 581.495 464.223Z" fill="#000000ff"/>
<path d="M95.8259 695.52C87.4206 695.52 79.9735 692.836 73.4848 687.47C66.996 682.104 63.7516 674.684 63.7516 665.211C63.7516 655.984 66.9001 648.592 73.1973 643.034C79.5218 637.449 87.0647 634.656 95.8259 634.656C98.9745 634.656 102.315 635.012 105.847 635.724C109.406 636.409 112.787 637.778 115.99 639.831L115.005 648.455C114.895 648.948 114.621 649.195 114.183 649.195H114.06C113.732 649.167 113.376 648.784 112.992 648.045C111.404 644.622 109.022 642.103 105.847 640.488C102.89 639.037 99.7411 638.311 96.4008 638.311H95.5384C88.1461 638.64 82.3692 641.597 78.2076 647.182C74.4567 652.193 72.5813 657.737 72.5813 663.815C72.5813 664.499 72.6086 665.184 72.6634 665.868C73.0467 672.165 75.2644 677.901 79.3164 683.076C83.3685 688.25 88.8717 691.002 95.8259 691.331C96.483 691.358 97.1127 691.372 97.715 691.372C101.22 691.372 104.108 690.838 106.38 689.77C109.009 688.511 111.213 685.978 112.992 682.172C113.348 681.406 113.786 681.022 114.307 681.022C114.416 681.022 114.526 681.036 114.635 681.063C115.073 681.228 115.292 681.543 115.292 682.008C115.292 682.227 115.237 682.474 115.128 682.747L111.555 692.727C108.927 693.822 106.257 694.561 103.547 694.945C100.836 695.328 98.2626 695.52 95.8259 695.52ZM151.925 638.229C143.52 638.257 137.647 640.912 134.307 646.197C130.967 651.453 129.297 657.778 129.297 665.17C129.297 672.59 131.391 678.928 135.58 684.185C139.769 689.414 145.217 692.056 151.925 692.111H152.13C158.674 692.111 164.054 689.318 168.27 683.733C172.432 678.202 174.513 672.097 174.513 665.416V665.17C174.458 658.353 172.678 652.165 169.174 646.607C165.669 641.022 159.92 638.229 151.925 638.229ZM151.925 634.615H152.336C161.179 634.615 168.64 637.326 174.718 642.747C180.385 647.812 183.219 654.492 183.219 662.788C183.219 663.527 183.192 664.28 183.137 665.047C182.562 674.465 179.29 681.775 173.322 686.977C167.381 692.152 160.221 694.972 151.843 695.437C151.213 695.465 150.584 695.478 149.954 695.478C142.343 695.478 135.607 692.85 129.748 687.593C123.725 682.227 120.713 675.204 120.713 666.525C120.713 666.033 120.727 665.54 120.754 665.047C121.083 655.711 124.095 648.332 129.789 642.911C135.512 637.49 142.89 634.725 151.925 634.615ZM241.084 685.663V642.377C241.084 640.625 240.4 639.502 239.031 639.01C237.689 638.517 237.019 637.914 237.019 637.203C237.019 636.628 237.292 636.34 237.84 636.34H248.312C248.887 636.34 249.175 636.628 249.175 637.203C249.175 637.914 248.49 638.517 247.121 639.01C245.752 639.502 245.068 640.625 245.068 642.377L245.027 695.766L237.758 694L198.414 645.17V688.004C198.414 689.784 199.099 690.92 200.468 691.413C201.837 691.878 202.521 692.453 202.521 693.138C202.521 693.713 202.234 694 201.659 694H191.227C190.653 694 190.365 693.713 190.365 693.138C190.365 692.453 191.05 691.878 192.418 691.413C193.787 690.92 194.472 689.784 194.472 688.004V642.377C194.472 640.625 193.787 639.502 192.418 639.01C191.05 638.517 190.365 637.914 190.365 637.203C190.365 636.628 190.653 636.34 191.227 636.34H201.782L241.084 685.663ZM259.524 694C259.004 694 258.744 693.713 258.744 693.138C258.744 692.809 259.031 692.467 259.606 692.111C260.017 691.837 260.496 691.522 261.044 691.166C261.618 690.81 262.084 690.331 262.44 689.729C262.714 689.181 262.851 688.606 262.851 688.004V642.377C262.851 640.598 262.166 639.475 260.797 639.01C259.428 638.517 258.744 637.914 258.744 637.203C258.744 636.628 259.031 636.34 259.606 636.34H297.717V646.895C297.717 647.47 297.43 647.757 296.855 647.757C296.581 647.757 296.075 647.21 295.336 646.114C293.967 644.225 292.776 642.76 291.763 641.72C290.777 640.68 289.463 640.16 287.82 640.16H270.284V662.46H279.689C280.838 662.46 281.851 661.953 282.728 660.94C283.22 660.338 283.617 659.735 283.919 659.133C284.22 658.531 284.589 658.23 285.027 658.23C285.575 658.23 285.849 658.517 285.849 659.092V669.523C285.849 670.098 285.575 670.386 285.027 670.386C284.535 670.386 284.11 670.044 283.754 669.359C283.426 668.647 282.974 667.963 282.399 667.306C281.632 666.539 280.729 666.156 279.689 666.156H270.284V688.004C270.284 688.771 270.462 689.441 270.818 690.016C271.146 690.509 271.557 690.92 272.05 691.248C272.543 691.55 272.994 691.823 273.405 692.07C274.035 692.453 274.35 692.809 274.35 693.138C274.35 693.302 274.336 693.425 274.309 693.507C274.117 693.836 273.857 694 273.528 694H259.524ZM351.065 691.043C351.832 691.673 352.831 692.042 354.063 692.152C354.83 692.234 355.213 692.522 355.213 693.014V693.138C355.131 693.713 354.843 694 354.351 694H343.385C343.139 694 342.208 692.932 340.593 690.797C338.977 688.661 337.102 686.115 334.966 683.158C332.831 680.201 330.641 677.176 328.395 674.082C326.15 670.988 324.275 668.497 322.769 666.607H316.198V688.004C316.198 689.784 316.883 690.92 318.252 691.413C319.621 691.878 320.305 692.453 320.305 693.138C320.305 693.713 320.031 694 319.484 694H305.562C304.987 694 304.699 693.713 304.699 693.138C304.699 692.453 305.384 691.878 306.753 691.413C308.121 690.92 308.806 689.784 308.806 688.004V642.377C308.806 640.625 308.121 639.502 306.753 639.01C305.384 638.517 304.699 637.914 304.699 637.203C304.699 636.628 304.987 636.34 305.562 636.34H329.792C332.612 636.34 335.555 636.847 338.621 637.86C341.688 638.845 344.056 640.776 345.726 643.65C347.04 645.978 347.698 648.77 347.698 652.028C347.643 655.122 346.753 657.901 345.028 660.365C343.659 662.309 341.756 663.801 339.32 664.842C336.883 665.855 334.569 666.43 332.379 666.566L351.065 691.043ZM316.198 639.749V663.733H325.726C327.615 663.733 329.532 663.459 331.476 662.911C333.42 662.364 335.09 661.392 336.486 659.995C338.676 657.887 339.771 655.095 339.771 651.618C339.771 648.277 338.635 645.485 336.363 643.24C333.926 640.912 330.654 639.749 326.547 639.749H316.198ZM389.793 635.396C391.161 638.626 392.845 642.583 394.844 647.264C396.87 651.946 398.951 656.765 401.086 661.72C403.249 666.676 405.33 671.495 407.329 676.176C409.355 680.858 411.066 684.801 412.462 688.004C412.873 689.017 413.681 689.934 414.885 690.756C415.515 691.166 416.131 691.509 416.733 691.782C417.363 692.056 417.87 692.316 418.253 692.563C418.527 692.754 418.705 692.946 418.787 693.138C418.842 693.247 418.869 693.357 418.869 693.466C418.869 693.548 418.842 693.644 418.787 693.754C418.705 693.918 418.54 694 418.294 694H404.413C404.166 694 403.92 693.918 403.674 693.754C403.4 693.562 403.236 693.357 403.181 693.138C403.126 693.055 403.099 692.973 403.099 692.891C403.099 692.645 403.263 692.385 403.591 692.111C403.838 691.864 404.139 691.604 404.495 691.331C404.851 691.057 405.111 690.687 405.275 690.222C405.357 690.003 405.398 689.756 405.398 689.482C405.398 689.017 405.289 688.511 405.07 687.963L398.992 673.918H375.049C374.063 676.272 373.078 678.627 372.092 680.981C371.134 683.309 370.162 685.636 369.176 687.963C368.93 688.511 368.793 689.003 368.766 689.441C368.738 689.633 368.725 689.825 368.725 690.016C368.725 690.29 368.766 690.55 368.848 690.797C368.93 691.153 369.067 691.454 369.258 691.7C369.45 691.919 369.587 692.152 369.669 692.398C369.696 692.617 369.71 692.768 369.71 692.85C369.71 692.932 369.683 693.028 369.628 693.138C369.436 693.713 369.135 694 368.725 694H358.129C357.855 694 357.663 693.918 357.554 693.754C357.554 693.726 357.527 693.658 357.472 693.548C357.472 693.493 357.499 693.357 357.554 693.138C357.718 692.782 358.184 692.426 358.95 692.07C359.361 691.878 359.799 691.673 360.264 691.454C360.757 691.207 361.25 690.92 361.743 690.591C362.756 689.879 363.495 689.017 363.961 688.004L387.246 635.396H389.793ZM397.554 670.591L386.836 645.581C385.083 649.769 383.331 653.945 381.579 658.106C379.854 662.268 378.129 666.43 376.404 670.591H397.554ZM472.709 691.043C473.476 691.673 474.475 692.042 475.707 692.152C476.474 692.234 476.857 692.522 476.857 693.014V693.138C476.775 693.713 476.488 694 475.995 694H465.03C464.783 694 463.852 692.932 462.237 690.797C460.622 688.661 458.746 686.115 456.611 683.158C454.475 680.201 452.285 677.176 450.04 674.082C447.795 670.988 445.919 668.497 444.413 666.607H437.842V688.004C437.842 689.784 438.527 690.92 439.896 691.413C441.265 691.878 441.949 692.453 441.949 693.138C441.949 693.713 441.675 694 441.128 694H427.206C426.631 694 426.343 693.713 426.343 693.138C426.343 692.453 427.028 691.878 428.397 691.413C429.766 690.92 430.45 689.784 430.45 688.004V642.377C430.45 640.625 429.766 639.502 428.397 639.01C427.028 638.517 426.343 637.914 426.343 637.203C426.343 636.628 426.631 636.34 427.206 636.34H451.436C454.256 636.34 457.199 636.847 460.266 637.86C463.332 638.845 465.7 640.776 467.37 643.65C468.685 645.978 469.342 648.77 469.342 652.028C469.287 655.122 468.397 657.901 466.672 660.365C465.303 662.309 463.401 663.801 460.964 664.842C458.527 665.855 456.214 666.43 454.023 666.566L472.709 691.043ZM437.842 639.749V663.733H447.37C449.259 663.733 451.176 663.459 453.12 662.911C455.064 662.364 456.734 661.392 458.13 659.995C460.32 657.887 461.416 655.095 461.416 651.618C461.416 648.277 460.279 645.485 458.007 643.24C455.57 640.912 452.298 639.749 448.192 639.749H437.842ZM494.886 642.377V687.963C494.886 689.77 495.571 690.92 496.94 691.413C498.309 691.878 498.993 692.453 498.993 693.138C498.993 693.713 498.706 694 498.131 694H484.208C483.661 694 483.387 693.713 483.387 693.138C483.387 692.453 484.072 691.878 485.441 691.413C486.809 690.92 487.494 689.784 487.494 688.004V642.377C487.494 640.598 486.809 639.475 485.441 639.01C484.072 638.517 483.387 637.914 483.387 637.203C483.387 636.628 483.675 636.34 484.25 636.34H498.131C498.706 636.34 498.993 636.628 498.993 637.203C498.993 637.914 498.309 638.517 496.94 639.01C495.571 639.475 494.886 640.598 494.886 642.377ZM539.774 635.396C541.143 638.626 542.827 642.583 544.825 647.264C546.851 651.946 548.932 656.765 551.068 661.72C553.231 666.676 555.311 671.495 557.31 676.176C559.336 680.858 561.047 684.801 562.444 688.004C562.854 689.017 563.662 689.934 564.867 690.756C565.496 691.166 566.112 691.509 566.715 691.782C567.344 692.056 567.851 692.316 568.234 692.563C568.508 692.754 568.686 692.946 568.768 693.138C568.823 693.247 568.85 693.357 568.85 693.466C568.85 693.548 568.823 693.644 568.768 693.754C568.686 693.918 568.522 694 568.275 694H554.394C554.148 694 553.901 693.918 553.655 693.754C553.381 693.562 553.217 693.357 553.162 693.138C553.107 693.055 553.08 692.973 553.08 692.891C553.08 692.645 553.244 692.385 553.573 692.111C553.819 691.864 554.12 691.604 554.476 691.331C554.832 691.057 555.092 690.687 555.257 690.222C555.339 690.003 555.38 689.756 555.38 689.482C555.38 689.017 555.27 688.511 555.051 687.963L548.973 673.918H525.03C524.045 676.272 523.059 678.627 522.073 680.981C521.115 683.309 520.143 685.636 519.158 687.963C518.911 688.511 518.774 689.003 518.747 689.441C518.72 689.633 518.706 689.825 518.706 690.016C518.706 690.29 518.747 690.55 518.829 690.797C518.911 691.153 519.048 691.454 519.24 691.7C519.431 691.919 519.568 692.152 519.65 692.398C519.678 692.617 519.691 692.768 519.691 692.85C519.691 692.932 519.664 693.028 519.609 693.138C519.418 693.713 519.117 694 518.706 694H508.11C507.836 694 507.645 693.918 507.535 693.754C507.535 693.726 507.508 693.658 507.453 693.548C507.453 693.493 507.481 693.357 507.535 693.138C507.7 692.782 508.165 692.426 508.932 692.07C509.342 691.878 509.78 691.673 510.246 691.454C510.739 691.207 511.231 690.92 511.724 690.591C512.737 689.879 513.476 689.017 513.942 688.004L537.228 635.396H539.774ZM547.536 670.591L536.817 645.581C535.065 649.769 533.312 653.945 531.56 658.106C529.835 662.268 528.11 666.43 526.386 670.591H547.536ZM604.744 642.131L622.157 686.731L640.802 648.537C641.158 647.826 641.336 647.182 641.336 646.607C641.336 646.114 641.212 645.676 640.966 645.293C640.446 644.472 639.638 643.404 638.543 642.09L636.531 639.749L641.623 635.888C641.842 635.697 642.075 635.601 642.321 635.601C642.595 635.601 642.896 635.738 643.225 636.012L646.592 639.461C647.304 640.201 647.66 641.104 647.66 642.172C647.66 642.774 647.551 643.418 647.332 644.102C646.675 646.046 645.703 648.332 644.416 650.96L624.292 692.686C624.101 693.151 623.909 693.507 623.717 693.754C623.498 693.918 623.279 694 623.06 694H616.859C616.585 694 616.366 693.89 616.202 693.671C616.12 693.589 615.969 693.274 615.75 692.727C615.558 692.179 615.422 691.782 615.339 691.536L599.816 648.414C598.72 645.512 597.927 643.486 597.434 642.336C596.941 641.323 596.133 640.406 595.011 639.585C594.354 639.174 593.71 638.845 593.08 638.599C592.478 638.325 591.985 638.051 591.602 637.778C591.356 637.641 591.191 637.449 591.109 637.203C591.027 637.093 590.986 636.97 590.986 636.833C590.986 636.751 591.013 636.669 591.068 636.587C591.178 636.422 591.342 636.34 591.561 636.34H605.483C605.729 636.34 605.976 636.422 606.222 636.587C606.469 636.806 606.633 637.011 606.715 637.203C606.742 637.285 606.756 637.353 606.756 637.408C606.756 637.682 606.606 637.956 606.304 638.229C606.031 638.476 605.716 638.749 605.36 639.051C605.031 639.324 604.785 639.667 604.621 640.077C604.511 640.351 604.456 640.639 604.456 640.94C604.456 641.323 604.552 641.72 604.744 642.131ZM667.291 642.377V687.963C667.291 689.77 667.975 690.92 669.344 691.413C670.713 691.878 671.398 692.453 671.398 693.138C671.398 693.713 671.11 694 670.535 694H656.613C656.066 694 655.792 693.713 655.792 693.138C655.792 692.453 656.476 691.878 657.845 691.413C659.214 690.92 659.899 689.784 659.899 688.004V642.377C659.899 640.598 659.214 639.475 657.845 639.01C656.476 638.517 655.792 637.914 655.792 637.203C655.792 636.628 656.079 636.34 656.654 636.34H670.535C671.11 636.34 671.398 636.628 671.398 637.203C671.398 637.914 670.713 638.517 669.344 639.01C667.975 639.475 667.291 640.598 667.291 642.377ZM733.986 685.663V642.377C733.986 640.625 733.301 639.502 731.932 639.01C730.591 638.517 729.92 637.914 729.92 637.203C729.92 636.628 730.194 636.34 730.741 636.34H741.214C741.789 636.34 742.076 636.628 742.076 637.203C742.076 637.914 741.392 638.517 740.023 639.01C738.654 639.502 737.969 640.625 737.969 642.377L737.928 695.766L730.659 694L691.316 645.17V688.004C691.316 689.784 692 690.92 693.369 691.413C694.738 691.878 695.423 692.453 695.423 693.138C695.423 693.713 695.135 694 694.56 694H684.129C683.554 694 683.266 693.713 683.266 693.138C683.266 692.453 683.951 691.878 685.32 691.413C686.689 690.92 687.373 689.784 687.373 688.004V642.377C687.373 640.625 686.689 639.502 685.32 639.01C683.951 638.517 683.266 637.914 683.266 637.203C683.266 636.628 683.554 636.34 684.129 636.34H694.683L733.986 685.663ZM795.177 646.895C795.177 647.47 794.89 647.757 794.315 647.757C794.069 647.757 793.548 647.21 792.754 646.114C791.358 644.225 790.153 642.76 789.14 641.72C788.155 640.68 786.841 640.16 785.198 640.16H774.89V688.004C774.89 689.784 775.574 690.92 776.943 691.413C778.312 691.906 778.997 692.494 778.997 693.179C778.997 693.726 778.723 694 778.175 694H764.253C763.678 694 763.391 693.726 763.391 693.179C763.391 692.494 764.075 691.906 765.444 691.413C766.813 690.92 767.497 689.784 767.497 688.004V640.16H757.025C755.382 640.16 754.041 640.68 753 641.72C751.987 642.76 750.796 644.225 749.427 646.114C748.661 647.21 748.154 647.757 747.908 647.757C747.333 647.757 747.045 647.47 747.045 646.895V639.297C747.045 637.819 747.292 636.929 747.785 636.628C748.305 636.299 749.619 636.135 751.727 636.135H790.496C792.768 636.135 794.11 636.272 794.52 636.545C794.958 636.819 795.177 637.736 795.177 639.297V646.895ZM825.855 635.396C827.224 638.626 828.908 642.583 830.907 647.264C832.933 651.946 835.014 656.765 837.149 661.72C839.312 666.676 841.393 671.495 843.392 676.176C845.418 680.858 847.129 684.801 848.525 688.004C848.936 689.017 849.743 689.934 850.948 690.756C851.578 691.166 852.194 691.509 852.796 691.782C853.426 692.056 853.932 692.316 854.316 692.563C854.589 692.754 854.767 692.946 854.85 693.138C854.904 693.247 854.932 693.357 854.932 693.466C854.932 693.548 854.904 693.644 854.85 693.754C854.767 693.918 854.603 694 854.357 694H840.476C840.229 694 839.983 693.918 839.736 693.754C839.463 693.562 839.298 693.357 839.244 693.138C839.189 693.055 839.162 692.973 839.162 692.891C839.162 692.645 839.326 692.385 839.654 692.111C839.901 691.864 840.202 691.604 840.558 691.331C840.914 691.057 841.174 690.687 841.338 690.222C841.42 690.003 841.461 689.756 841.461 689.482C841.461 689.017 841.352 688.511 841.133 687.963L835.055 673.918H811.112C810.126 676.272 809.141 678.627 808.155 680.981C807.197 683.309 806.225 685.636 805.239 687.963C804.993 688.511 804.856 689.003 804.828 689.441C804.801 689.633 804.787 689.825 804.787 690.016C804.787 690.29 804.828 690.55 804.911 690.797C804.993 691.153 805.13 691.454 805.321 691.7C805.513 691.919 805.65 692.152 805.732 692.398C805.759 692.617 805.773 692.768 805.773 692.85C805.773 692.932 805.746 693.028 805.691 693.138C805.499 693.713 805.198 694 804.787 694H794.192C793.918 694 793.726 693.918 793.617 693.754C793.617 693.726 793.589 693.658 793.535 693.548C793.535 693.493 793.562 693.357 793.617 693.138C793.781 692.782 794.247 692.426 795.013 692.07C795.424 691.878 795.862 691.673 796.327 691.454C796.82 691.207 797.313 690.92 797.806 690.591C798.819 689.879 799.558 689.017 800.023 688.004L823.309 635.396H825.855ZM833.617 670.591L822.898 645.581C821.146 649.769 819.394 653.945 817.642 658.106C815.917 662.268 814.192 666.43 812.467 670.591H833.617ZM891.729 695.52C883.324 695.52 875.877 692.836 869.388 687.47C862.899 682.104 859.655 674.684 859.655 665.211C859.655 655.984 862.803 648.592 869.1 643.034C875.425 637.449 882.968 634.656 891.729 634.656C894.877 634.656 898.218 635.012 901.75 635.724C905.309 636.409 908.69 637.778 911.893 639.831L910.908 648.455C910.798 648.948 910.524 649.195 910.086 649.195H909.963C909.635 649.167 909.279 648.784 908.895 648.045C907.116 644.239 904.898 641.706 902.242 640.447C899.614 639.188 896.11 638.558 891.729 638.558C885.623 638.558 880.189 640.68 875.425 644.923C870.661 649.167 868.279 655.93 868.279 665.211C868.279 671.18 870.497 676.943 874.932 682.501C879.395 688.059 884.994 691.002 891.729 691.331C892.386 691.358 893.016 691.372 893.618 691.372C896.739 691.372 899.368 690.961 901.503 690.14C904.049 689.154 906.185 687.155 907.91 684.144V676.423C907.855 675.574 907.417 674.917 906.596 674.452C905.856 674.068 904.775 673.589 903.351 673.014C901.928 672.412 901.216 671.823 901.216 671.248C901.216 670.673 901.503 670.386 902.078 670.386H918.546C919.121 670.386 919.409 670.673 919.409 671.248C919.409 671.96 918.724 672.562 917.356 673.055C915.987 673.548 915.302 674.671 915.302 676.423V692.398C911.086 692.59 907.02 693.179 903.105 694.164C901.134 694.684 899.19 695.04 897.273 695.232C895.357 695.424 893.509 695.52 891.729 695.52ZM939.04 690.14H956.576C959.122 690.14 961.271 689.168 963.023 687.224C964.803 685.252 966.145 683.719 967.048 682.624C967.541 682.022 967.924 681.721 968.198 681.721C968.773 681.721 969.06 682.008 969.06 682.583C969.06 682.939 969.033 683.226 968.978 683.445L965.98 694H928.239C927.746 694 927.499 693.713 927.499 693.138C927.499 692.453 928.184 691.878 929.553 691.413C930.922 690.92 931.606 689.784 931.606 688.004V642.377C931.606 640.598 930.922 639.475 929.553 639.01C928.184 638.517 927.499 637.914 927.499 637.203C927.499 636.628 927.787 636.34 928.362 636.34H966.473V646.895C966.473 647.47 966.186 647.757 965.611 647.757C965.337 647.757 964.83 647.21 964.091 646.114C962.722 644.225 961.531 642.76 960.518 641.72C959.533 640.68 958.218 640.16 956.576 640.16H939.04V662.46H948.444C950.196 662.46 951.346 661.761 951.894 660.365C952.441 658.941 953.071 658.23 953.783 658.23C954.331 658.23 954.604 658.517 954.604 659.092V669.523C954.604 670.098 954.331 670.386 953.783 670.386C953.071 670.386 952.4 669.688 951.771 668.291C951.141 666.895 949.95 666.197 948.198 666.197H939.04V690.14Z" fill="#000000ff"/>
</g>
<defs>
<clipPath id="clip0_617_17">
<rect width="1080" height="1080" fill="white"/>
</clipPath>
</defs>
</svg>
